# xmcd
#
# Track frame offsets:
# 183
# 20713
# 37408
# 55208
# 69333
# 85895
# 104990
# 123533
# 146220
# 162295
# 174645
# 189358
# 209570
# 228258
#
# Disc length: 3268 seconds
#
#
# Revision: 0
# Processed by: cddbd v1.5.1PL0 Copyright (c) Steve Scherf et al.
# Submitted via: FreeRIP 2.931 
#
DISCID=d70cc20e
DTITLE=Drupi - Greatest Hits
DYEAR=1976
DGENRE=Italo Pop
TTITLE0=Piccola e fragile
TTITLE1=Rimani
TTITLE2=Sereno è
TTITLE3=Quando mai
TTITLE4=Due
TTITLE5=Sambario
TTITLE6=Vado via
TTITLE7=Mille Lire
TTITLE8=Vivere un po'
TTITLE9=Bagno a mezzanotte
TTITLE10=Aiutami
TTITLE11=Geloso io ...?
TTITLE12=E gia'
TTITLE13=che estate
EXTD=
EXTT0=
EXTT1=
EXTT2=
EXTT3=
EXTT4=
EXTT5=
EXTT6=
EXTT7=
EXTT8=
EXTT9=
EXTT10=
EXTT11=
EXTT12=
EXTT13=
PLAYORDER=
